<?xml version="1.0" encoding="UTF-8" ?>
<!DOCTYPE svg PUBLIC "-//W3C//DTD SVG 1.1//EN" "http://www.w3.org/Graphics/SVG/1.1/DTD/svg11.dtd">
<svg width="129pt" height="105pt" viewBox="0 0 129 105" version="1.1" xmlns="http://www.w3.org/2000/svg">
<g id="#e9ae2eff">
<path fill="#e9ae2e" opacity="1.00" d=" M 50.12 0.00 L 73.58 0.00 C 70.92 7.23 68.77 14.67 65.56 21.68 C 63.60 26.03 58.57 27.79 54.08 27.71 C 48.33 27.69 42.49 28.21 36.78 27.36 C 33.51 26.82 32.36 23.04 33.37 20.22 C 35.12 14.20 36.34 7.55 40.68 2.76 C 42.97 -0.07 46.86 0.23 50.12 0.00 Z" />
<path fill="#e9ae2e" opacity="1.00" d=" M 64.62 81.60 C 69.00 75.98 76.78 77.50 82.97 77.31 C 86.93 77.63 91.60 76.29 94.98 78.92 C 97.80 82.27 94.99 86.71 94.17 90.32 C 92.06 95.95 90.91 104.30 83.48 105.00 L 57.52 105.00 C 55.65 103.53 57.29 101.22 57.65 99.45 C 59.98 93.52 60.98 86.92 64.62 81.60 Z" />
</g>
<g id="#0d3c85ff">
<path fill="#0d3c85" opacity="1.00" d=" M 86.30 0.00 L 121.19 0.00 C 124.50 0.29 127.65 2.04 129.00 5.19 L 129.00 10.57 C 125.93 20.16 122.59 29.67 119.16 39.14 C 117.24 44.58 113.36 49.81 107.55 51.36 C 97.04 54.03 85.97 50.79 75.46 53.42 C 67.99 55.36 62.28 61.51 59.56 68.56 C 55.39 78.74 52.29 89.31 48.69 99.69 C 47.91 102.28 45.90 104.26 43.29 105.00 L 8.36 105.00 C 4.47 104.74 0.91 102.27 0.00 98.39 L 0.00 95.48 C 2.87 85.68 6.38 76.08 9.65 66.41 C 11.58 60.39 16.11 54.94 22.38 53.25 C 32.86 50.57 43.92 53.95 54.37 51.09 C 61.21 49.23 66.58 43.75 69.29 37.32 C 73.61 26.92 76.73 16.08 80.35 5.42 C 81.15 2.63 83.41 0.48 86.30 0.00 Z" />
</g>
</svg>
